{
	"asset":{
		"generator":"Khronos glTF Blender I/O v3.5.30",
		"version":"2.0"
	},
	"scene":0,
	"scenes":[
		{
			"name":"Scene",
			"nodes":[
				0
			]
		}
	],
	"nodes":[
		{
			"mesh":0,
			"name":"Tree_Spruce_small_01",
			"translation":[
				11.073843955993652,
				-10.752288818359375,
				-20.978029251098633
			]
		}
	],
	"materials":[
		{
			"doubleSided":true,
			"name":"AllColors_Material",
			"pbrMetallicRoughness":{
				"baseColorTexture":{
					"index":0
				},
				"metallicFactor":0,
				"roughnessFactor":0.4000000059604645
			}
		}
	],
	"meshes":[
		{
			"name":"Cylinder.016",
			"primitives":[
				{
					"attributes":{
						"POSITION":0,
						"TEXCOORD_0":1,
						"NORMAL":2
					},
					"indices":3,
					"material":0
				}
			]
		}
	],
	"textures":[
		{
			"sampler":0,
			"source":0
		}
	],
	"images":[
		{
			"bufferView":4,
			"mimeType":"image/png",
			"name":"texture_gradient"
		}
	],
	"accessors":[
		{
			"bufferView":0,
			"componentType":5126,
			"count":187,
			"max":[
				5.079797744750977,
				18.25551986694336,
				5.0340895652771
			],
			"min":[
				-5.497369766235352,
				0,
				-5.2268900871276855
			],
			"type":"VEC3"
		},
		{
			"bufferView":1,
			"componentType":5126,
			"count":187,
			"type":"VEC2"
		},
		{
			"bufferView":2,
			"componentType":5126,
			"count":187,
			"type":"VEC3"
		},
		{
			"bufferView":3,
			"componentType":5123,
			"count":1098,
			"type":"SCALAR"
		}
	],
	"bufferViews":[
		{
			"buffer":0,
			"byteLength":2244,
			"byteOffset":0,
			"target":34962
		},
		{
			"buffer":0,
			"byteLength":1496,
			"byteOffset":2244,
			"target":34962
		},
		{
			"buffer":0,
			"byteLength":2244,
			"byteOffset":3740,
			"target":34962
		},
		{
			"buffer":0,
			"byteLength":2196,
			"byteOffset":5984,
			"target":34963
		},
		{
			"buffer":0,
			"byteLength":4163,
			"byteOffset":8180
		}
	],
	"samplers":[
		{
			"magFilter":9729,
			"minFilter":9987
		}
	],
	"buffers":[
		{
			"byteLength":12344,
			"uri":"data:application/octet-stream;base64,"
		}
	]
}
